# xmcd
#
# Track frame offsets:
#	150
#	10877
#	20675
#	30504
#	39507
#	45594
#	52326
#	61826
#	67637
#	72862
#	80295
#	87126
#	96605
#	104724
#	113724
#	123485
#	133242
#	141960
#	153508
#	165288
#	176620
#	185699
#	195021
#	204513
#	217320
#	227236
#	238475
#	250422
#	261586
#	274225
#
# Disc length: 3775 seconds
#
# Revision: 0
# Processed by: cddbd v1.5.2PL0 Copyright (c) Steve Scherf et al.
# Submitted via: EasyCDDAExtractor 16.0.1.1
#
DISCID=bf0ebd1e
DTITLE=Johnny Bond - Rare Home Recordings and Transcriptions
DYEAR=1900
DGENRE=Country
TTITLE0=I Dreamed That You Belonged To Me
TTITLE1=Home Trails
TTITLE2=Dear Old Dad
TTITLE3=Call Of The Canyon
TTITLE4=Cannonball Boogie
TTITLE5=Leave My Foolish Heart Alone
TTITLE6=Careless Heart
TTITLE7=I'm A Poor Lonesome Cowboy Lookin' For A Cow
TTITLE8=Ride  Ride  Ride
TTITLE9=No One To Cry Over Me
TTITLE10=The Silly Cowboy Song
TTITLE11=It's Desert In My Soul
TTITLE12=Weep No More
TTITLE13=I'll Get By Without You
TTITLE14=The Trail Is Way Too Long
TTITLE15=What Will I Tell Old Paint
TTITLE16=Thanks For Your Letter
TTITLE17=Blues In My Dreams
TTITLE18=Heart And Soul
TTITLE19=The First Rose
TTITLE20=So Long The Red River Valley
TTITLE21=Don't Live A Lie
TTITLE22=Sad And Blue
TTITLE23=At Mail Call Today
TTITLE24=Oklahoma Hills
TTITLE25=Gals Don't Mean A Thing (In My Young Life)
TTITLE26=Have I Stayed Away Too Long
TTITLE27=Saddle Serenade
TTITLE28=Birmingham Jail
TTITLE29=Red River Valley
EXTD=
EXTT0=
EXTT1=
EXTT2=
EXTT3=
EXTT4=
EXTT5=
EXTT6=
EXTT7=
EXTT8=
EXTT9=
EXTT10=
EXTT11=
EXTT12=
EXTT13=
EXTT14=
EXTT15=
EXTT16=
EXTT17=
EXTT18=
EXTT19=
EXTT20=
EXTT21=
EXTT22=
EXTT23=
EXTT24=
EXTT25=
EXTT26=
EXTT27=
EXTT28=
EXTT29=
PLAYORDER=
